<?xml version="1.0" standalone="no"?>
<!DOCTYPE svg PUBLIC "-//W3C//DTD SVG 20010904//EN"
 "http://www.w3.org/TR/2001/REC-SVG-20010904/DTD/svg10.dtd">
<svg version="1.0" xmlns="http://www.w3.org/2000/svg"
 width="1145.000000pt" height="644.000000pt" viewBox="0 0 1145.000000 644.000000"
 preserveAspectRatio="xMidYMid meet">
<metadata>
Created by potrace 1.16, written by Peter Selinger 2001-2019
</metadata>
<g transform="translate(0.000000,644.000000) scale(0.100000,-0.100000)"
fill="#000000" stroke="none">
<path d="M0 3220 l0 -3220 5725 0 5725 0 0 3220 0 3220 -5725 0 -5725 0 0
-3220z m7735 875 c3 -16 5 -86 3 -155 l-3 -125 -54 -3 -53 -3 7 68 c10 99 15
116 30 103 9 -8 15 -8 20 0 3 6 10 8 15 5 9 -6 20 18 20 46 0 15 -7 19 -32 19
-18 0 -39 4 -46 8 -20 13 2 60 30 64 48 9 58 4 63 -27z m-696 -200 c1 -38 5
-74 9 -80 4 -6 70 -10 157 -11 271 -1 310 -8 438 -70 16 -8 37 -14 47 -14 44
0 50 -10 50 -76 0 -59 14 -88 22 -46 2 9 12 -10 22 -43 10 -33 24 -66 29 -74
26 -32 -2 -257 -36 -285 -41 -34 -52 -70 -57 -191 -5 -112 -6 -120 -25 -118
-11 1 -78 6 -150 12 -205 17 -348 31 -372 36 -15 4 -23 13 -23 28 0 18 -2 19
-10 7 -8 -13 -15 -12 -47 8 -21 13 -71 38 -111 58 -51 24 -72 39 -69 48 3 8
-1 17 -9 20 -9 3 -14 -1 -14 -14 0 -17 -11 -19 -147 -22 -82 -2 -158 -1 -170
1 -32 5 -28 25 7 38 33 12 47 41 57 112 4 25 12 51 18 58 7 6 15 30 19 52 3
23 15 50 26 61 22 22 29 70 8 52 -17 -13 -55 2 -62 25 -3 10 1 36 9 58 8 22
14 34 15 26 0 -14 14 -7 16 7 6 72 33 169 34 123 0 -24 49 29 70 76 18 40 21
43 59 43 l41 0 1 -52 c0 -29 4 -71 8 -93 8 -40 14 -36 25 16 5 25 72 79 96 79
6 0 8 5 5 10 -3 6 2 10 12 11 31 1 -15 17 -69 24 -32 4 -48 11 -48 21 0 8 4
14 9 14 5 0 11 10 13 23 2 12 13 26 25 32 16 7 28 27 39 65 14 45 18 51 25 35
4 -11 8 -51 8 -90z"/>
</g>
</svg>
